<?xml version="1.0" encoding="UTF-8" standalone="no"?>
<!-- Created with Inkscape (http://www.inkscape.org/) -->

<svg
   xmlns:dc="http://purl.org/dc/elements/1.1/"
   xmlns:cc="http://creativecommons.org/ns#"
   xmlns:rdf="http://www.w3.org/1999/02/22-rdf-syntax-ns#"
   xmlns:svg="http://www.w3.org/2000/svg"
   xmlns="http://www.w3.org/2000/svg"
   xmlns:xlink="http://www.w3.org/1999/xlink"
   xmlns:sodipodi="http://sodipodi.sourceforge.net/DTD/sodipodi-0.dtd"
   xmlns:inkscape="http://www.inkscape.org/namespaces/inkscape"
   id="svg2"
   version="1.1"
   inkscape:version="0.91 r13725"
   width="146.69788"
   height="134.91556"
   viewBox="0 0 146.69788 134.91555"
   sodipodi:docname="logo.svg"
   inkscape:export-filename="/home/czmj/Coding/cyclespoons/app/assets/images/logo-bw.png"
   inkscape:export-xdpi="613.5058"
   inkscape:export-ydpi="613.5058">
  <metadata
     id="metadata8">
    <rdf:RDF>
      <cc:Work
         rdf:about="">
        <dc:format>image/svg+xml</dc:format>
        <dc:type
           rdf:resource="http://purl.org/dc/dcmitype/StillImage" />
        <dc:title></dc:title>
      </cc:Work>
    </rdf:RDF>
  </metadata>
  <defs
     id="defs6" />
  <sodipodi:namedview
     pagecolor="#ffffff"
     bordercolor="#666666"
     borderopacity="1"
     objecttolerance="10"
     gridtolerance="10"
     guidetolerance="10"
     inkscape:pageopacity="0"
     inkscape:pageshadow="2"
     inkscape:window-width="1600"
     inkscape:window-height="847"
     id="namedview4"
     showgrid="false"
     inkscape:zoom="2.0085107"
     inkscape:cx="16.314326"
     inkscape:cy="41.641122"
     inkscape:window-x="0"
     inkscape:window-y="0"
     inkscape:window-maximized="1"
     inkscape:current-layer="svg2"
     fit-margin-top="0"
     fit-margin-left="0"
     fit-margin-right="0"
     fit-margin-bottom="0" />
  <g
     id="g4982"
     transform="matrix(1.1731758,0,0,1.1731758,-28.780676,-195.38829)"
     inkscape:export-xdpi="613.5058"
     inkscape:export-ydpi="613.5058">
    <circle
       r="57.500145"
       cy="224.04662"
       cx="84.888771"
       id="circle4153"
       style="fill:#000000;fill-opacity:1;stroke:none;stroke-width:1.01030886;stroke-opacity:1" />
    <g
       id="g4946">
      <circle
         r="50.529804"
         cy="224.04662"
         cx="84.888771"
         id="circle4151"
         style="fill:#ffffff;fill-opacity:1;stroke:none;stroke-width:1.01030886;stroke-opacity:1" />
      <g
         id="g4912">
        <circle
           r="48.289337"
           cy="224.04662"
           cx="84.888771"
           id="path4140"
           style="fill:none;fill-opacity:1;stroke:#000000;stroke-width:1.01030886;stroke-opacity:1" />
        <g
           id="g4226">
          <g
             id="g4175">
            <g
               id="g4159">
              <path
                 style="fill:none;fill-rule:evenodd;stroke:#000000;stroke-width:1px;stroke-linecap:butt;stroke-linejoin:miter;stroke-opacity:1"
                 d="M 80.407839,175.75212 97.086865,271.0964"
                 id="path4155"
                 inkscape:connector-curvature="0" />
              <path
                 style="fill:none;fill-rule:evenodd;stroke:#000000;stroke-width:1px;stroke-linecap:butt;stroke-linejoin:miter;stroke-opacity:1"
                 d="m 72.690678,176.99682 16.927966,95.09534"
                 id="path4157"
                 inkscape:connector-curvature="0" />
            </g>
            <g
               transform="matrix(0.77724266,0.62920096,-0.62920096,0.77724266,159.80211,-3.5317146)"
               id="g4163">
              <path
                 inkscape:connector-curvature="0"
                 id="path4165"
                 d="M 80.407839,175.75212 97.086865,271.0964"
                 style="fill:none;fill-rule:evenodd;stroke:#000000;stroke-width:1px;stroke-linecap:butt;stroke-linejoin:miter;stroke-opacity:1" />
              <path
                 inkscape:connector-curvature="0"
                 id="path4167"
                 d="m 72.690678,176.99682 16.927966,95.09534"
                 style="fill:none;fill-rule:evenodd;stroke:#000000;stroke-width:1px;stroke-linecap:butt;stroke-linejoin:miter;stroke-opacity:1" />
            </g>
            <g
               id="g4169"
               transform="matrix(0.94328503,0.33198397,-0.33198397,0.94328503,79.126424,-15.443913)">
              <path
                 style="fill:none;fill-rule:evenodd;stroke:#000000;stroke-width:1px;stroke-linecap:butt;stroke-linejoin:miter;stroke-opacity:1"
                 d="M 80.407839,175.75212 97.086865,271.0964"
                 id="path4171"
                 inkscape:connector-curvature="0" />
              <path
                 style="fill:none;fill-rule:evenodd;stroke:#000000;stroke-width:1px;stroke-linecap:butt;stroke-linejoin:miter;stroke-opacity:1"
                 d="m 72.690678,176.99682 16.927966,95.09534"
                 id="path4173"
                 inkscape:connector-curvature="0" />
            </g>
          </g>
          <g
             id="g4186"
             transform="matrix(0.48234706,0.8759802,-0.8759802,0.48234706,240.28126,41.549077)">
            <g
               id="g4188">
              <path
                 inkscape:connector-curvature="0"
                 id="path4190"
                 d="M 80.407839,175.75212 97.086865,271.0964"
                 style="fill:none;fill-rule:evenodd;stroke:#000000;stroke-width:1px;stroke-linecap:butt;stroke-linejoin:miter;stroke-opacity:1" />
              <path
                 inkscape:connector-curvature="0"
                 id="path4192"
                 d="m 72.690678,176.99682 16.927966,95.09534"
                 style="fill:none;fill-rule:evenodd;stroke:#000000;stroke-width:1px;stroke-linecap:butt;stroke-linejoin:miter;stroke-opacity:1" />
            </g>
            <g
               id="g4194"
               transform="matrix(0.77724266,0.62920096,-0.62920096,0.77724266,159.80211,-3.5317146)">
              <path
                 style="fill:none;fill-rule:evenodd;stroke:#000000;stroke-width:1px;stroke-linecap:butt;stroke-linejoin:miter;stroke-opacity:1"
                 d="M 80.407839,175.75212 97.086865,271.0964"
                 id="path4196"
                 inkscape:connector-curvature="0" />
              <path
                 style="fill:none;fill-rule:evenodd;stroke:#000000;stroke-width:1px;stroke-linecap:butt;stroke-linejoin:miter;stroke-opacity:1"
                 d="m 72.690678,176.99682 16.927966,95.09534"
                 id="path4198"
                 inkscape:connector-curvature="0" />
            </g>
            <g
               transform="matrix(0.94328503,0.33198397,-0.33198397,0.94328503,79.126424,-15.443913)"
               id="g4200">
              <path
                 inkscape:connector-curvature="0"
                 id="path4202"
                 d="M 80.407839,175.75212 97.086865,271.0964"
                 style="fill:none;fill-rule:evenodd;stroke:#000000;stroke-width:1px;stroke-linecap:butt;stroke-linejoin:miter;stroke-opacity:1" />
              <path
                 inkscape:connector-curvature="0"
                 id="path4204"
                 d="m 72.690678,176.99682 16.927966,95.09534"
                 style="fill:none;fill-rule:evenodd;stroke:#000000;stroke-width:1px;stroke-linecap:butt;stroke-linejoin:miter;stroke-opacity:1" />
            </g>
          </g>
          <g
             transform="matrix(-0.51276286,0.85853028,-0.85853028,-0.51276286,320.83876,265.99376)"
             id="g4206">
            <g
               id="g4208">
              <path
                 style="fill:none;fill-rule:evenodd;stroke:#000000;stroke-width:1px;stroke-linecap:butt;stroke-linejoin:miter;stroke-opacity:1"
                 d="M 80.407839,175.75212 97.086865,271.0964"
                 id="path4210"
                 inkscape:connector-curvature="0" />
              <path
                 style="fill:none;fill-rule:evenodd;stroke:#000000;stroke-width:1px;stroke-linecap:butt;stroke-linejoin:miter;stroke-opacity:1"
                 d="m 72.690678,176.99682 16.927966,95.09534"
                 id="path4212"
                 inkscape:connector-curvature="0" />
            </g>
            <g
               transform="matrix(0.77724266,0.62920096,-0.62920096,0.77724266,159.80211,-3.5317146)"
               id="g4214">
              <path
                 inkscape:connector-curvature="0"
                 id="path4216"
                 d="M 80.407839,175.75212 97.086865,271.0964"
                 style="fill:none;fill-rule:evenodd;stroke:#000000;stroke-width:1px;stroke-linecap:butt;stroke-linejoin:miter;stroke-opacity:1" />
              <path
                 inkscape:connector-curvature="0"
                 id="path4218"
                 d="m 72.690678,176.99682 16.927966,95.09534"
                 style="fill:none;fill-rule:evenodd;stroke:#000000;stroke-width:1px;stroke-linecap:butt;stroke-linejoin:miter;stroke-opacity:1" />
            </g>
            <g
               id="g4220"
               transform="matrix(0.94328503,0.33198397,-0.33198397,0.94328503,79.126424,-15.443913)">
              <path
                 style="fill:none;fill-rule:evenodd;stroke:#000000;stroke-width:1px;stroke-linecap:butt;stroke-linejoin:miter;stroke-opacity:1"
                 d="M 80.407839,175.75212 97.086865,271.0964"
                 id="path4222"
                 inkscape:connector-curvature="0" />
              <path
                 style="fill:none;fill-rule:evenodd;stroke:#000000;stroke-width:1px;stroke-linecap:butt;stroke-linejoin:miter;stroke-opacity:1"
                 d="m 72.690678,176.99682 16.927966,95.09534"
                 id="path4224"
                 inkscape:connector-curvature="0" />
            </g>
          </g>
        </g>
      </g>
    </g>
  </g>
  <g
     id="g4722"
     transform="matrix(1.1274797,0,0,1.0487434,-26.793058,-167.42489)"
     inkscape:export-xdpi="613.5058"
     inkscape:export-ydpi="613.5058">
    <path
       id="path4499"
       d="m 153.875,192.27148 -130.111328,23.00782 0,37.06445 c 0.142445,2.1e-4 0.285464,-0.0107 0.425781,-0.0352 a 1.4051476,1.4051476 0 0 0 0.002,-0.002 l 129.683547,-22.9335 0,-37.10157 z"
       style="fill:#000000;fill-opacity:1;fill-rule:evenodd;stroke:none;stroke-width:1px;stroke-linecap:butt;stroke-linejoin:miter;stroke-opacity:1"
       inkscape:connector-curvature="0" />
    <path
       id="path4495"
       d="m 153.875,193.69727 -130.111328,23.00781 0,34.23437 a 1.05071,1.05071 0 0 0 0.183594,-0.0156 L 153.875,227.94727 l 0,-34.25 z"
       style="fill:#ffffff;fill-opacity:1;fill-rule:evenodd;stroke:none;stroke-width:1px;stroke-linecap:butt;stroke-linejoin:miter;stroke-opacity:1"
       inkscape:connector-curvature="0" />
    <path
       id="path4361"
       d="m 153.875,194.76562 -130.111328,23.00782 0,32.11523 130.111328,-23.00781 0,-32.11524 z"
       style="fill:#000000;fill-opacity:1;fill-rule:evenodd;stroke:none;stroke-width:1px;stroke-linecap:butt;stroke-linejoin:miter;stroke-opacity:1"
       inkscape:connector-curvature="0" />
  </g>
  <path
     style="fill:#000000;fill-opacity:1;fill-rule:evenodd;stroke:none;stroke-width:1.5;stroke-linecap:butt;stroke-linejoin:miter;stroke-miterlimit:4;stroke-dasharray:none;stroke-opacity:1"
     d="m 63.59773,101.80957 c -0.01285,-0.004 -0.02623,-0.006 -0.03906,-0.01 l 0.08984,0.0274 c -0.01982,-0.006 -0.03141,-0.0114 -0.05078,-0.0176 z"
     id="path4869"
     inkscape:connector-curvature="0"
     inkscape:export-xdpi="613.5058"
     inkscape:export-ydpi="613.5058" />
  <g
     id="g4871"
     transform="matrix(1.215625,0,0,1.215625,-34.035886,-204.05581)"
     inkscape:export-xdpi="613.5058"
     inkscape:export-ydpi="613.5058">
    <path
       transform="translate(-0.1926697,0)"
       d="m 85.087891,186.32227 c -2.986218,6e-5 -5.974691,0.13736 -8.947266,0.4082 -1.488886,0.13564 -3.033253,0.2944 -4.591797,0.63281 -0.580968,0.12615 -1.557736,0.28242 -2.441406,0.48828 -0.441835,0.10293 -0.856949,0.20916 -1.28125,0.39063 -0.212151,0.0907 -0.430647,0.19298 -0.6875,0.40234 -0.256853,0.20936 -0.627117,0.60446 -0.69336,1.24219 -0.389295,3.748 -0.112528,6.05152 -0.03906,8.86133 0.07543,2.88507 0.13478,5.83252 0.494141,8.80468 0.724139,5.9892 2.3329,11.69775 3.248047,17.37891 0.930312,5.77529 1.979474,11.47903 2.326171,17.16797 0.173095,2.84035 0.0099,5.76357 -0.115234,8.74414 -0.05442,1.29594 -0.26377,2.70257 -0.298828,4.23828 a 1.5536643,1.5536643 0 0 0 0,0.008 c -0.02771,1.52925 -0.0032,3.14342 0.599609,4.77539 a 1.5536643,1.5536643 0 0 0 0.322266,0.52149 c 1.265287,1.35403 2.876424,1.55925 3.849609,1.875 a 1.5536643,1.5536643 0 0 0 0.03711,0.0117 c 2.712713,0.80531 5.353483,0.87628 8.205078,0.91015 2.946646,0.035 6.039129,-0.20947 8.269531,-0.91992 0.913667,-0.29103 1.493684,-0.42742 2.109375,-0.66992 0.615691,-0.2425 1.240763,-0.66208 1.75,-1.20703 a 1.5536643,1.5536643 0 0 0 0.275391,-0.41016 c 0.840621,-1.8236 0.633037,-3.61168 0.646484,-4.84179 a 1.5536643,1.5536643 0 0 0 0,-0.0527 c -0.03469,-1.53482 -0.242566,-2.94142 -0.296875,-4.23828 -0.12488,-2.98209 -0.291878,-5.90504 -0.119141,-8.74414 0.346093,-5.68842 1.397742,-11.39224 2.328126,-17.16797 0.91515,-5.68116 2.5239,-11.38971 3.24805,-17.37891 0.35945,-2.97296 0.41647,-5.92053 0.49218,-8.80468 0.0758,-2.88871 0.17564,-6.52595 -0.0332,-8.83985 -0.0518,-0.57433 -0.3771,-1.00657 -0.64062,-1.24218 -0.26353,-0.23562 -0.49894,-0.35399 -0.72266,-0.45313 -0.44744,-0.19828 -0.87618,-0.30245 -1.32422,-0.40039 -0.89608,-0.19588 -1.873766,-0.33024 -2.421874,-0.44922 -1.558425,-0.33828 -3.102821,-0.49718 -4.591797,-0.63281 -2.975574,-0.27104 -5.965892,-0.40828 -8.955078,-0.4082 z"
       inkscape:href="#path4454-7"
       id="path4493"
       style="fill:#ffffff;fill-opacity:1;fill-rule:evenodd;stroke:#ffffff;stroke-width:1.64181364;stroke-linecap:butt;stroke-linejoin:miter;stroke-miterlimit:4;stroke-dasharray:none;stroke-opacity:1"
       xlink:href="#path4454-7"
       inkscape:original="M 85.087891 187.875 C 82.149467 187.87506 79.20755 188.01072 76.28125 188.27734 C 74.806259 188.41172 73.326278 188.56659 71.878906 188.88086 C 70.55596 189.16811 68.047838 189.49231 67.990234 190.04688 C 67.615402 193.65563 67.883535 195.82139 67.958984 198.70703 C 68.034544 201.59713 68.096328 204.497 68.443359 207.36719 C 69.148347 213.19799 70.747589 218.88703 71.681641 224.68555 C 72.608156 230.43727 73.671006 236.19078 74.025391 242.00586 C 74.205914 244.9681 74.036632 247.94308 73.912109 250.9082 C 73.853089 252.31367 73.645386 253.71085 73.613281 255.11719 C 73.586421 256.59971 73.627937 258.00159 74.117188 259.32617 C 74.916262 260.18129 76.197315 260.42201 77.310547 260.7832 C 79.781388 261.51671 82.258869 261.59721 85.091797 261.63086 C 87.924725 261.66446 90.969758 261.38945 92.873047 260.7832 C 94.776335 260.17695 95.269285 260.18129 96.068359 259.32617 C 96.687531 257.98297 96.557584 256.46032 96.572266 255.11719 C 96.540476 253.71089 96.334247 252.31363 96.275391 250.9082 C 96.151221 247.94306 95.977972 244.96813 96.158203 242.00586 C 96.512004 236.19074 97.577391 230.43727 98.503906 224.68555 C 99.437958 218.88703 101.0372 213.19799 101.74219 207.36719 C 102.08922 204.497 102.14874 201.59713 102.22461 198.70703 C 102.30031 195.8214 102.38782 192.15815 102.19727 190.04688 C 102.13907 189.40192 99.628209 189.16815 98.304688 188.88086 C 96.857298 188.56668 95.377334 188.4117 93.902344 188.27734 C 90.973056 188.01052 88.029312 187.87493 85.087891 187.875 z "
       inkscape:radius="1.553509"
       sodipodi:type="inkscape:offset" />
    <path
       sodipodi:nodetypes="sssssssssccczzccsssssssss"
       inkscape:connector-curvature="0"
       id="path4454-7"
       d="m 85.08795,187.87564 c -2.938424,6e-5 -5.879818,0.13487 -8.806118,0.40149 -1.474991,0.13438 -2.954796,0.28887 -4.402168,0.60314 -1.322946,0.28725 -3.832433,0.61244 -3.890037,1.16701 -0.374832,3.60876 -0.105779,5.77416 -0.03033,8.6598 0.07556,2.8901 0.13655,5.7896 0.483581,8.65979 0.704988,5.8308 2.304671,11.52107 3.238723,17.31959 0.926515,5.75172 1.990348,11.50453 2.344733,17.31961 0.180523,2.96224 0.01032,5.93735 -0.114203,8.90247 -0.05902,1.40547 -0.267682,2.80311 -0.299787,4.20945 -0.02686,1.48252 0.01571,2.88309 0.50496,4.20767 0.799074,0.85512 2.080879,1.09668 3.194111,1.45787 2.470841,0.73351 4.947154,0.81401 7.780082,0.84766 2.832928,0.0336 5.878568,-0.24141 7.781857,-0.84766 1.903288,-0.60625 2.395046,-0.60275 3.19412,-1.45787 0.619172,-1.3432 0.49036,-2.86454 0.505042,-4.20767 -0.03179,-1.4063 -0.239141,-2.80402 -0.297997,-4.20945 -0.12417,-2.96514 -0.296215,-5.9402 -0.115984,-8.90247 0.353801,-5.81512 1.418209,-11.56789 2.344724,-17.31961 0.934052,-5.79852 2.533741,-11.48879 3.238731,-17.31959 0.34703,-2.87019 0.4077,-5.76969 0.48357,-8.65979 0.0757,-2.88563 0.16205,-6.54853 -0.0285,-8.6598 -0.0582,-0.64496 -2.568299,-0.87972 -3.89182,-1.16701 -1.44739,-0.31418 -2.927178,-0.46878 -4.402168,-0.60314 -2.929288,-0.26682 -5.873699,-0.40156 -8.81512,-0.40149 z"
       style="fill:#ffffff;fill-opacity:1;fill-rule:evenodd;stroke:#000000;stroke-width:1.5;stroke-linecap:butt;stroke-linejoin:miter;stroke-miterlimit:4;stroke-dasharray:none;stroke-opacity:1" />
    <path
       id="path4867"
       d="m 74.869141,201.22266 -4.382813,0 c 0.07049,1.42301 0.170199,2.81722 0.333984,4.17187 0.719791,5.95327 2.439308,12.0946 3.501954,18.69141 0.998525,6.19877 2.189331,12.58056 2.59375,19.21679 0.214674,3.5227 -0.114197,5.23888 -0.248047,8.42579 -0.07545,1.79533 -0.295819,3.28471 -0.324219,4.49414 -0.07647,1.7959 0.347653,1.86008 1.333984,2.17578 2.082845,0.61035 4.347635,0.63155 7.292969,0.66601 2.963502,0.0346 5.920772,-0.32564 7.351563,-0.65625 1.43079,-0.33061 1.346433,-1.15836 1.361328,-2.23828 -0.03218,-1.20339 -0.244129,-2.67081 -0.31836,-4.44336 -0.133384,-3.18506 -0.208513,-4.89976 0.0059,-8.42383 0.403807,-6.63678 1.595263,-13.01826 2.59375,-19.21679 1.062519,-6.59606 2.780132,-12.7374 3.5,-18.69141 0.163776,-1.35445 0.263486,-2.74852 0.333984,-4.17187 l -21.046875,0 0,23.49609 c -0.554579,-3.1542 -1.249663,-6.28446 -1.902344,-9.42187 -0.652681,-3.13742 -1.262094,-6.28175 -1.646484,-9.46094 -0.185138,-1.53121 -0.257395,-3.07223 -0.333984,-4.61328 z"
       style="fill:#000000;fill-opacity:1;fill-rule:evenodd;stroke:none;stroke-width:1.5;stroke-linecap:butt;stroke-linejoin:miter;stroke-miterlimit:4;stroke-dasharray:none;stroke-opacity:1"
       inkscape:connector-curvature="0" />
    <path
       id="path4859"
       d="m 74.869141,201.22266 c 0.07659,1.54105 0.148846,3.08207 0.333984,4.61328 0.38439,3.17919 0.993803,6.32352 1.646484,9.46094 0.652681,3.13741 1.347765,6.26767 1.902344,9.42187 l 0,-23.49609 -3.882812,0 z"
       style="fill:#ffffff;fill-opacity:1;fill-rule:evenodd;stroke:none;stroke-width:1.5;stroke-linecap:butt;stroke-linejoin:miter;stroke-miterlimit:4;stroke-dasharray:none;stroke-opacity:1"
       inkscape:connector-curvature="0" />
  </g>
  <text
     xml:space="preserve"
     style="font-style:normal;font-variant:normal;font-weight:normal;font-stretch:normal;font-size:43.84277725px;line-height:124.00000095%;font-family:FreeSerif;-inkscape-font-specification:FreeSerif;letter-spacing:0px;word-spacing:-1.76142311px;fill:#00ff00;fill-opacity:1;stroke:none;stroke-width:0;stroke-linecap:butt;stroke-linejoin:miter;stroke-miterlimit:4;stroke-dasharray:none;stroke-opacity:1"
     x="7.1370883"
     y="77.99791"
     id="text5020"
     sodipodi:linespacing="124%"
     transform="matrix(0.92381646,-0.16389153,0,1.0824661,0,0)"
     inkscape:export-xdpi="613.5058"
     inkscape:export-ydpi="613.5058"><tspan
       sodipodi:role="line"
       id="tspan5022"
       x="7.1370883"
       y="77.99791"
       style="font-style:normal;font-variant:normal;font-weight:bold;font-stretch:condensed;font-size:16.5781002px;line-height:124.00000095%;font-family:'Liberation Sans Narrow';-inkscape-font-specification:'Liberation Sans Narrow Bold Condensed';letter-spacing:-0.64668095px;word-spacing:-2.07226253px;fill:#ffffff;fill-opacity:1;stroke:#ffffff;stroke-width:0;stroke-miterlimit:4;stroke-dasharray:none;stroke-opacity:1"><tspan
         style="font-style:normal;font-variant:normal;font-weight:bold;font-stretch:condensed;font-size:16.5781002px;font-family:'Liberation Sans Narrow';-inkscape-font-specification:'Liberation Sans Narrow Bold Condensed';letter-spacing:-0.31786016px;word-spacing:-2.07226253px;stroke:#ffffff;stroke-width:0;stroke-miterlimit:4;stroke-dasharray:none;stroke-opacity:1"
         id="tspan4195"><tspan
   id="tspan4947"
   style="letter-spacing:-0.94244939px;stroke:#ffffff;stroke-width:0;stroke-miterlimit:4;stroke-dasharray:none;stroke-opacity:1">C</tspan><tspan
   style="letter-spacing:-0.9825536px;stroke:#ffffff;stroke-width:0;stroke-miterlimit:4;stroke-dasharray:none;stroke-opacity:1"
   id="tspan4649">Y</tspan>CLE  </tspan><tspan
         style="font-style:normal;font-variant:normal;font-weight:bold;font-stretch:condensed;font-size:16.5781002px;font-family:'Liberation Sans Narrow';-inkscape-font-specification:'Liberation Sans Narrow Bold Condensed';letter-spacing:-0.41445252px;word-spacing:-2.07226253px;stroke:#ffffff;stroke-width:0;stroke-miterlimit:4;stroke-dasharray:none;stroke-opacity:1"
         id="tspan4549">                                   SPOONS</tspan></tspan></text>
  <flowRoot
     xml:space="preserve"
     id="flowRoot4541"
     style="font-style:normal;font-weight:normal;font-size:40px;line-height:125%;font-family:sans-serif;letter-spacing:-100px;word-spacing:-100px;fill:#000000;fill-opacity:1;stroke:none;stroke-width:1px;stroke-linecap:butt;stroke-linejoin:miter;stroke-opacity:1"
     transform="translate(-14.080004,-156.58887)"
     inkscape:export-xdpi="613.5058"
     inkscape:export-ydpi="613.5058"><flowRegion
       id="flowRegion4543"><rect
         id="rect4545"
         width="113.3618"
         height="107.72891"
         x="-134.48512"
         y="247.50107" /></flowRegion><flowPara
       id="flowPara4547" /></flowRoot></svg>
